<svg height="1342" width="720" xmlns="http://www.w3.org/2000/svg">
<rect height="1342" fill="#555" width="720"></rect>
<text fill="#7f7" font-family="Courier New" font-size="12" xml:space="preserve">
<tspan x="10" y="26">18 megabytes installed</tspan>
<tspan x="10" y="42"></tspan>
<tspan x="10" y="58">node_modules</tspan>
<tspan x="10" y="74">└─┬ hubot-slack@4.3.4 </tspan>
<tspan x="10" y="90">  ├─┬ @slack/client@3.9.0 </tspan>
<tspan x="10" y="106">  │ ├── async@1.5.2 </tspan>
<tspan x="10" y="122">  │ ├── bluebird@3.5.0 </tspan>
<tspan x="10" y="138">  │ ├── eventemitter3@1.2.0 </tspan>
<tspan x="10" y="154">  │ ├─┬ https-proxy-agent@1.0.0 </tspan>
<tspan x="10" y="170">  │ │ ├─┬ agent-base@2.0.1 </tspan>
<tspan x="10" y="186">  │ │ │ └── semver@5.0.3 </tspan>
<tspan x="10" y="202">  │ │ ├─┬ debug@2.6.4 </tspan>
<tspan x="10" y="218">  │ │ │ └── ms@0.7.3 </tspan>
<tspan x="10" y="234">  │ │ └── extend@3.0.0 </tspan>
<tspan x="10" y="250">  │ ├── inherits@2.0.3 </tspan>
<tspan x="10" y="266">  │ ├── lodash@4.17.4 </tspan>
<tspan x="10" y="282">  │ ├── pkginfo@0.4.0 </tspan>
<tspan x="10" y="298">  │ ├─┬ request@2.81.0 </tspan>
<tspan x="10" y="314">  │ │ ├── aws-sign2@0.6.0 </tspan>
<tspan x="10" y="330">  │ │ ├── aws4@1.6.0 </tspan>
<tspan x="10" y="346">  │ │ ├── caseless@0.12.0 </tspan>
<tspan x="10" y="362">  │ │ ├─┬ combined-stream@1.0.5 </tspan>
<tspan x="10" y="378">  │ │ │ └── delayed-stream@1.0.0 </tspan>
<tspan x="10" y="394">  │ │ ├── forever-agent@0.6.1 </tspan>
<tspan x="10" y="410">  │ │ ├─┬ form-data@2.1.4 </tspan>
<tspan x="10" y="426">  │ │ │ └── asynckit@0.4.0 </tspan>
<tspan x="10" y="442">  │ │ ├─┬ har-validator@4.2.1 </tspan>
<tspan x="10" y="458">  │ │ │ ├─┬ ajv@4.11.7 </tspan>
<tspan x="10" y="474">  │ │ │ │ ├── co@4.6.0 </tspan>
<tspan x="10" y="490">  │ │ │ │ └─┬ json-stable-stringify@1.0.1 </tspan>
<tspan x="10" y="506">  │ │ │ │   └── jsonify@0.0.0 </tspan>
<tspan x="10" y="522">  │ │ │ └── har-schema@1.0.5 </tspan>
<tspan x="10" y="538">  │ │ ├─┬ hawk@3.1.3 </tspan>
<tspan x="10" y="554">  │ │ │ ├── boom@2.10.1 </tspan>
<tspan x="10" y="570">  │ │ │ ├── cryptiles@2.0.5 </tspan>
<tspan x="10" y="586">  │ │ │ ├── hoek@2.16.3 </tspan>
<tspan x="10" y="602">  │ │ │ └── sntp@1.0.9 </tspan>
<tspan x="10" y="618">  │ │ ├─┬ http-signature@1.1.1 </tspan>
<tspan x="10" y="634">  │ │ │ ├── assert-plus@0.2.0 </tspan>
<tspan x="10" y="650">  │ │ │ ├─┬ jsprim@1.4.0 </tspan>
<tspan x="10" y="666">  │ │ │ │ ├── assert-plus@1.0.0 </tspan>
<tspan x="10" y="682">  │ │ │ │ ├── extsprintf@1.0.2 </tspan>
<tspan x="10" y="698">  │ │ │ │ ├── json-schema@0.2.3 </tspan>
<tspan x="10" y="714">  │ │ │ │ └── verror@1.3.6 </tspan>
<tspan x="10" y="730">  │ │ │ └─┬ sshpk@1.13.0 </tspan>
<tspan x="10" y="746">  │ │ │   ├── asn1@0.2.3 </tspan>
<tspan x="10" y="762">  │ │ │   ├── assert-plus@1.0.0 </tspan>
<tspan x="10" y="778">  │ │ │   ├── bcrypt-pbkdf@1.0.1 </tspan>
<tspan x="10" y="794">  │ │ │   ├─┬ dashdash@1.14.1 </tspan>
<tspan x="10" y="810">  │ │ │   │ └── assert-plus@1.0.0 </tspan>
<tspan x="10" y="826">  │ │ │   ├── ecc-jsbn@0.1.1 </tspan>
<tspan x="10" y="842">  │ │ │   ├─┬ getpass@0.1.6 </tspan>
<tspan x="10" y="858">  │ │ │   │ └── assert-plus@1.0.0 </tspan>
<tspan x="10" y="874">  │ │ │   ├── jodid25519@1.0.2 </tspan>
<tspan x="10" y="890">  │ │ │   ├── jsbn@0.1.1 </tspan>
<tspan x="10" y="906">  │ │ │   └── tweetnacl@0.14.5 </tspan>
<tspan x="10" y="922">  │ │ ├── is-typedarray@1.0.0 </tspan>
<tspan x="10" y="938">  │ │ ├── isstream@0.1.2 </tspan>
<tspan x="10" y="954">  │ │ ├── json-stringify-safe@5.0.1 </tspan>
<tspan x="10" y="970">  │ │ ├─┬ mime-types@2.1.15 </tspan>
<tspan x="10" y="986">  │ │ │ └── mime-db@1.27.0 </tspan>
<tspan x="10" y="1002">  │ │ ├── oauth-sign@0.8.2 </tspan>
<tspan x="10" y="1018">  │ │ ├── performance-now@0.2.0 </tspan>
<tspan x="10" y="1034">  │ │ ├── qs@6.4.0 </tspan>
<tspan x="10" y="1050">  │ │ ├── safe-buffer@5.0.1 </tspan>
<tspan x="10" y="1066">  │ │ ├── stringstream@0.0.5 </tspan>
<tspan x="10" y="1082">  │ │ ├─┬ tough-cookie@2.3.2 </tspan>
<tspan x="10" y="1098">  │ │ │ └── punycode@1.4.1 </tspan>
<tspan x="10" y="1114">  │ │ ├── tunnel-agent@0.6.0 </tspan>
<tspan x="10" y="1130">  │ │ └── uuid@3.0.1 </tspan>
<tspan x="10" y="1146">  │ ├── retry@0.9.0 </tspan>
<tspan x="10" y="1162">  │ ├── url-join@0.0.1 </tspan>
<tspan x="10" y="1178">  │ ├─┬ winston@2.3.1 </tspan>
<tspan x="10" y="1194">  │ │ ├── async@1.0.0 </tspan>
<tspan x="10" y="1210">  │ │ ├── colors@1.0.3 </tspan>
<tspan x="10" y="1226">  │ │ ├── cycle@1.0.3 </tspan>
<tspan x="10" y="1242">  │ │ ├── eyes@0.1.8 </tspan>
<tspan x="10" y="1258">  │ │ └── stack-trace@0.0.9 </tspan>
<tspan x="10" y="1274">  │ └─┬ ws@1.1.4 </tspan>
<tspan x="10" y="1290">  │   ├── options@0.0.6 </tspan>
<tspan x="10" y="1306">  │   └── ultron@1.0.2 </tspan>
<tspan x="10" y="1322">  └── lodash@3.10.1</tspan>
</text>
</svg>
